<svg width="32" height="32" viewBox="0 0 32 32" fill="none" xmlns="http://www.w3.org/2000/svg">
<circle cx="7.32765" cy="14.5928" r="0.500015" fill="white"/>
<circle cx="14.2193" cy="8.39384" r="0.500839" fill="white"/>
<path d="M12.7549 0.602356H19.245V0.602356C19.245 2.0965 18.0338 3.30774 16.5397 3.30774H15.4603C13.9661 3.30774 12.7549 2.0965 12.7549 0.602356V0.602356Z" stroke="white"/>
<path d="M10.743 7.9364C10.743 6.83183 11.6385 5.9364 12.743 5.9364H19.257C20.3615 5.9364 21.257 6.83183 21.257 7.9364V13.0564C21.257 14.161 20.3615 15.0564 19.257 15.0564H12.743C11.6385 15.0564 10.743 14.161 10.743 13.0564V7.9364Z" stroke="white"/>
<path d="M19.0017 8.88611L18.6481 9.23967L19.0017 8.88611ZM17.4107 8.88612L17.0571 8.53256L17.4107 8.88612ZM13.6155 11.2919L13.969 10.9383H13.969L13.6155 11.2919ZM15.0422 13.4257C15.2374 13.621 15.554 13.621 15.7493 13.4257C15.9446 13.2304 15.9446 12.9139 15.7493 12.7186L15.0422 13.4257ZM12.0245 11.2919L11.6709 10.9383H11.6709L12.0245 11.2919ZM18.6481 9.23967L20.8432 11.4347L21.5503 10.7276L19.3552 8.53256L18.6481 9.23967ZM14.6637 12.3401L17.7642 9.23967L17.0571 8.53256L13.9566 11.633L14.6637 12.3401ZM19.3552 8.53256C18.7206 7.89796 17.6917 7.89796 17.0571 8.53256L17.7642 9.23967C18.0083 8.99559 18.404 8.99559 18.6481 9.23967L19.3552 8.53256ZM13.2619 11.6454L15.0422 13.4257L15.7493 12.7186L13.969 10.9383L13.2619 11.6454ZM11.0954 12.9281L12.378 11.6454L11.6709 10.9383L10.3883 12.221L11.0954 12.9281ZM13.969 10.9383C13.3344 10.3037 12.3055 10.3037 11.6709 10.9383L12.378 11.6454C12.6221 11.4014 13.0178 11.4014 13.2619 11.6454L13.969 10.9383Z" fill="white"/>
<path d="M7.32776 25.9761H24.6723" stroke="white"/>
<path d="M14.4845 28.5856H17.5154" stroke="white" stroke-linecap="round"/>
<path d="M7.32776 12.7023V3.22736C7.32776 1.77761 8.50301 0.602356 9.95276 0.602356H22.0473C23.4971 0.602356 24.6723 1.77761 24.6723 3.22736V28.7727C24.6723 30.2224 23.4971 31.3977 22.0473 31.3977H9.95276C8.50301 31.3977 7.32776 30.2224 7.32776 28.7727V16.4833" stroke="white" stroke-linecap="round"/>
<path d="M10.4552 23.0981H15.0787" stroke="white" stroke-linecap="round"/>
<path d="M10.4552 20.3351H18.801" stroke="white" stroke-linecap="round"/>
<path d="M10.4552 17.6106H12.2582" stroke="white" stroke-linecap="round"/>
<path d="M13.938 17.6106H15.741" stroke="white" stroke-linecap="round"/>
<path d="M16.9404 23.0981H21.5639" stroke="white" stroke-linecap="round"/>
</svg>
