<svg width="42" height="42" viewBox="0 0 42 42" fill="none" xmlns="http://www.w3.org/2000/svg">
<g clip-path="url(#clip0_473_526)">
<path d="M25.2009 0H16.8006C8.69433 0 2.1001 6.59423 2.1001 14.7005V21.0007C2.1001 26.6972 5.38146 31.8581 10.5004 34.2889V41.3084C10.5004 41.9175 11.2617 42.2325 11.6922 41.802L17.7929 35.7065H25.2009C33.3072 35.7065 39.9014 29.1123 39.9014 21.0007V14.7005C39.9014 6.59423 33.3072 0 25.2009 0ZM30.7031 27.5535L28.5768 29.6326C26.3402 31.8219 20.502 29.3228 15.3568 24.0674C10.2116 18.8067 7.95405 12.916 10.0804 10.7266L12.2067 8.64758C12.989 7.88105 14.3173 7.8968 15.1941 8.67908L18.2602 11.8134C19.3522 12.9317 18.8902 14.806 17.4464 15.2366C16.4488 15.5568 15.7716 16.6541 16.0918 17.6516C16.6221 19.9827 19.578 22.8966 21.783 23.4741C22.7753 23.7051 23.8884 23.1643 24.2349 22.172C24.6916 20.7387 26.5764 20.3135 27.6737 21.437L30.7346 24.5661C31.5011 25.3479 31.4906 26.6767 30.7031 27.5535ZM22.9118 9.97535C22.7018 9.97535 22.4918 9.98585 22.2871 10.0121C21.9038 10.0541 21.5573 9.77584 21.5153 9.39258C21.4733 9.00931 21.7515 8.6628 22.1348 8.6208C22.3921 8.5893 22.6546 8.5788 22.9118 8.5788C26.7707 8.5788 29.9103 11.7184 29.9103 15.5773C29.9103 15.8345 29.8998 16.0971 29.8683 16.3543C29.8263 16.7323 29.4746 17.0158 29.0965 16.9738C28.7185 16.9318 28.435 16.5801 28.477 16.2021C28.498 15.9973 28.5138 15.7873 28.5138 15.5773C28.5138 12.4902 25.9989 9.97535 22.9118 9.97535ZM27.112 15.5773C27.112 15.9606 26.7917 16.2756 26.4084 16.2756C26.0304 16.2756 25.7102 15.9606 25.7102 15.5773C25.7102 14.0337 24.4554 12.7789 22.9118 12.7789C22.5233 12.7789 22.2083 12.4639 22.2083 12.0754C22.2083 11.6922 22.5233 11.3771 22.9118 11.3771C25.2272 11.3771 27.112 13.262 27.112 15.5773ZM32.4514 17.8401C32.3622 18.2181 31.9579 18.4544 31.5851 18.3546C31.2229 18.2549 31.0024 17.8769 31.0864 17.5146C31.2386 16.8846 31.3121 16.2336 31.3121 15.5773C31.3121 10.9466 27.5425 7.177 22.9118 7.177C22.6966 7.177 22.4761 7.18225 22.2608 7.20325C21.8775 7.2295 21.5415 6.94074 21.51 6.55748C21.4838 6.16896 21.7725 5.83295 22.1558 5.8067C22.4078 5.7857 22.6598 5.7752 22.9118 5.7752C28.3143 5.7752 32.7139 10.1749 32.7139 15.5773C32.7139 16.3386 32.6247 17.0998 32.4514 17.8401Z" fill="currentColor"/>
<path d="M30.7032 27.5534L28.5769 29.6325C26.3403 31.8218 20.5021 29.3227 15.3569 24.0673C10.2117 18.8066 7.95414 12.9159 10.0805 10.7266L12.2068 8.64752C12.9891 7.881 14.3174 7.89675 15.1941 8.67902L18.2602 11.8134C19.3523 12.9317 18.8903 14.806 17.4465 15.2365C16.4489 15.5568 15.7717 16.654 16.0919 17.6516C16.6222 19.9827 19.578 22.8965 21.7831 23.474C22.7754 23.705 23.8884 23.1643 24.235 22.172C24.6917 20.7387 26.5765 20.3134 27.6738 21.437L30.7347 24.5661C31.5012 25.3478 31.4907 26.6766 30.7032 27.5534ZM22.9119 9.97529C22.7019 9.97529 22.4919 9.98579 22.2871 10.012C21.9039 10.054 21.5574 9.77579 21.5154 9.39252C21.4734 9.00926 21.7516 8.66275 22.1349 8.62075C22.3921 8.58925 22.6547 8.57874 22.9119 8.57874C26.7708 8.57874 29.9104 11.7184 29.9104 15.5772C29.9104 15.8345 29.8999 16.097 29.8684 16.3543C29.8264 16.7323 29.4746 17.0158 29.0966 16.9738C28.7186 16.9318 28.4351 16.58 28.4771 16.202C28.4981 15.9973 28.5139 15.7872 28.5139 15.5772C28.5139 12.4901 25.999 9.97529 22.9119 9.97529ZM27.1121 15.5772C27.1121 15.9605 26.7918 16.2755 26.4085 16.2755C26.0305 16.2755 25.7103 15.9605 25.7103 15.5772C25.7103 14.0337 24.4555 12.7789 22.9119 12.7789C22.5234 12.7789 22.2084 12.4639 22.2084 12.0754C22.2084 11.6921 22.5234 11.3771 22.9119 11.3771C25.2272 11.3771 27.1121 13.2619 27.1121 15.5772ZM32.4515 17.8401C32.3622 18.2181 31.958 18.4543 31.5852 18.3546C31.223 18.2548 31.0024 17.8768 31.0864 17.5146C31.2387 16.8845 31.3122 16.2335 31.3122 15.5772C31.3122 10.9466 27.5426 7.17695 22.9119 7.17695C22.6967 7.17695 22.4761 7.1822 22.2609 7.2032C21.8776 7.22945 21.5416 6.94069 21.5101 6.55742C21.4839 6.16891 21.7726 5.8329 22.1559 5.80665C22.4079 5.78565 22.6599 5.77515 22.9119 5.77515C28.3144 5.77515 32.714 10.1748 32.714 15.5772C32.714 16.3385 32.6247 17.0998 32.4515 17.8401Z" fill="white"/>
</g>
<defs>
<clipPath id="clip0_473_526">
<rect width="42" height="42" fill="white"/>
</clipPath>
</defs>
</svg>
