<svg width="32" height="32" viewBox="0 0 32 32" fill="none" xmlns="http://www.w3.org/2000/svg">
<path d="M10.759 10.5038L18.1789 17.9236C18.5606 18.3053 19.1796 18.3053 19.5613 17.9236L24.9847 12.5001C25.3665 12.1184 25.3665 11.4994 24.9847 11.1177L17.565 3.69788C17.1831 3.3162 16.5643 3.3162 16.1825 3.69788L10.759 9.12136C10.3774 9.50311 10.3774 10.122 10.759 10.5038Z" stroke="white" stroke-miterlimit="10" stroke-linecap="round" stroke-linejoin="round"/>
<path d="M26.9418 7.72038L26.6336 8.02856C26.1 8.56218 25.4199 8.9253 24.6796 9.07187L23.2265 9.35944L19.3232 5.45607L19.6108 4.00301C19.7573 3.26272 20.1204 2.58262 20.6541 2.04902L20.9622 1.74083C22.4499 0.25315 24.8618 0.25315 26.3494 1.74083L26.9418 2.33321C28.4295 3.82083 28.4295 6.23276 26.9418 7.72038Z" stroke="white" stroke-miterlimit="10" stroke-linecap="round" stroke-linejoin="round"/>
<path d="M17.0217 16.7664L8.21408 23.9727L4.76428 20.5229L11.9189 11.6636L17.0217 16.7664Z" stroke="white" stroke-miterlimit="10" stroke-linecap="round" stroke-linejoin="round"/>
<path d="M17.5819 13.3021L15.4405 11.1608C14.6887 10.409 14.6997 9.18671 15.465 8.44852C16.211 7.7289 17.396 7.73959 18.1289 8.47252L20.2702 10.6138C21.0183 11.3619 21.0117 12.5768 20.2554 13.3167C19.5108 14.0453 18.3185 14.0388 17.5819 13.3021Z" stroke="white" stroke-miterlimit="10" stroke-linecap="round" stroke-linejoin="round"/>
<path d="M6.70419 22.4628L5.14988 24.0171C3.46664 25.7003 3.46664 28.4294 5.14988 30.1126C6.83313 31.7958 9.56218 31.7958 11.2454 30.1126L21.1837 20.1743C22.7688 18.5892 25.3386 18.5892 26.9238 20.1743C28.5088 21.7594 28.5088 24.3293 26.9238 25.9143L23.4091 29.4289" stroke="white" stroke-miterlimit="10" stroke-linecap="round" stroke-linejoin="round"/>
<circle cx="22.1558" cy="30.7568" r="0.663035" fill="white"/>
</svg>
