<svg width="42" height="42" viewBox="0 0 42 42" fill="none" xmlns="http://www.w3.org/2000/svg">
<path d="M21.001 41C32.0467 41 41.001 32.0457 41.001 21C41.001 9.9543 32.0467 1 21.001 1C9.95528 1 1.00098 9.9543 1.00098 21C1.00098 32.0457 9.95528 41 21.001 41Z" fill="currentColor"/>
<path d="M10.0254 20.4311L29.5358 13.0898C30.4413 12.7706 31.2322 13.3054 30.9388 14.6417L30.9405 14.64L27.6185 29.9133C27.3723 30.9961 26.7129 31.2594 25.7905 30.7493L20.7316 27.1107L18.2916 29.4048C18.0218 29.6681 17.7941 29.8902 17.2714 29.8902L17.6305 24.8661L27.0063 16.6C27.4144 16.2495 26.9153 16.052 26.3773 16.4009L14.7908 23.5199L9.79602 21.9994C8.71173 21.6637 8.68812 20.9412 10.0254 20.4311Z" fill="white"/>
</svg>
