<svg width="42" height="42" viewBox="0 0 42 42" fill="none" xmlns="http://www.w3.org/2000/svg">
<path d="M21.0043 1H20.9948C10.5186 1 1.99951 9.5215 1.99951 20C1.99951 24.1562 3.33901 28.0085 5.61664 31.1364L3.24876 38.1949L10.5519 35.8603C13.5563 37.8505 17.1401 39 21.0043 39C31.4804 39 39.9995 30.4761 39.9995 20C39.9995 9.52388 31.4804 1 21.0043 1Z" fill="currentColor"/>
<path d="M31.6068 27.3191C31.1586 28.5549 29.3799 29.5798 27.9611 29.8791C26.9905 30.0809 25.7227 30.2419 21.4547 28.5141C15.9956 26.3056 12.48 20.8885 12.206 20.5371C11.9436 20.1856 10 17.6687 10 15.0656C10 12.4625 11.3538 11.195 11.8994 10.6508C12.3476 10.2041 13.0883 10 13.7989 10C14.0288 10 14.2354 10.0113 14.4212 10.0204C14.9669 10.0431 15.2409 10.0748 15.6008 10.9161C16.049 11.9705 17.1403 14.5735 17.2704 14.8411C17.4027 15.1087 17.5351 15.4715 17.3493 15.8229C17.1752 16.1857 17.0219 16.3467 16.7479 16.6551C16.4739 16.9635 16.2138 17.1993 15.9398 17.5304C15.689 17.8183 15.4058 18.1267 15.7216 18.6596C16.0374 19.1811 17.1287 20.9203 18.7356 22.317C20.8092 24.1197 22.4904 24.6956 23.0918 24.9405C23.5399 25.1219 24.074 25.0789 24.4014 24.7387C24.8171 24.3011 25.3302 23.5755 25.8527 22.8612C26.2242 22.3488 26.6933 22.2853 27.1856 22.4667C27.6871 22.6368 30.3412 23.9179 30.8869 24.1832C31.4326 24.4508 31.7925 24.5777 31.9249 24.8022C32.0549 25.0267 32.0549 26.0811 31.6068 27.3191Z" fill="white"/>
</svg>
