<svg width="210" height="41" viewBox="0 0 210 41" fill="none" xmlns="http://www.w3.org/2000/svg">
<path d="M8.70769 4.86954H6.40085L0 23.0357H1.96462L3.51096 18.6329H11.5849L13.1312 23.0357H15.1085L8.70769 4.86954ZM4.11936 16.892L7.54159 7.10247L10.9765 16.892H4.11936Z" fill="white"/>
<path d="M23.2658 23.0357C26.9543 23.0357 29.654 21.5849 29.654 18.04C29.654 15.4665 27.8415 13.9652 26.2064 13.6499C27.7148 13.1452 29.071 11.8332 29.071 9.53724C29.071 6.33293 26.5867 4.86954 23.0757 4.86954H16.8777V23.0357H23.2658ZM23.1011 6.64831C25.5093 6.64831 27.1571 7.48093 27.1571 9.65077C27.1571 11.808 25.6234 12.8046 23.6207 12.8046H18.7409V6.64831H23.1011ZM18.7409 21.2569V14.5455H23.6588C25.8262 14.5455 27.7401 15.5043 27.7401 17.876C27.7401 20.4874 25.8642 21.2569 23.2658 21.2569H18.7409Z" fill="white"/>
<path d="M37.6515 23.0357V6.64831H43.2285V4.86954H30.1226V6.64831H35.7883V23.0357H37.6515Z" fill="white"/>
<path d="M53.2336 23.4142C58.6965 23.4142 61.6497 19.5412 61.6497 13.9526C61.6497 8.364 58.6965 4.49108 53.2336 4.49108C47.7833 4.49108 44.8301 8.364 44.8301 13.9526C44.8301 19.5412 47.7833 23.4142 53.2336 23.4142ZM53.2336 21.6354C48.9494 21.6354 46.7694 18.4942 46.8074 13.9526C46.8454 9.41108 48.9494 6.26985 53.2336 6.26985C57.5177 6.26985 59.6724 9.41108 59.6724 13.9526C59.6724 18.4942 57.5177 21.6354 53.2336 21.6354Z" fill="white"/>
<path d="M65.5823 23.0357V16.1351H70.4749C74.2647 16.1351 76.4955 13.9652 76.4955 10.5086C76.4955 7.03939 74.2773 4.86954 70.4749 4.86954H63.7064V23.0357H65.5823ZM65.5823 6.64831H70.4622C73.0479 6.64831 74.5815 8.08647 74.5815 10.5086C74.5815 12.9182 73.0479 14.3689 70.4622 14.3689H65.5823V6.64831Z" fill="white"/>
<path d="M85.9381 23.4142C90.1715 23.4142 92.8966 21.0803 93.898 17.4471L91.9967 16.9551C91.2235 19.8188 89.2082 21.6354 85.9381 21.6354C81.654 21.6354 79.4992 18.4942 79.4992 13.9526C79.4992 9.41108 81.7047 6.26985 85.9381 6.26985C89.2082 6.26985 91.2235 8.08647 91.9967 10.9502L93.898 10.4582C92.8966 6.82493 90.1715 4.49108 85.9381 4.49108C80.4879 4.49108 77.5346 8.364 77.5346 13.9526C77.5346 19.5412 80.4879 23.4142 85.9381 23.4142Z" fill="white"/>
<path d="M96.2129 23.0357H98.0888V13.9274L107.063 23.0357H109.496L100.294 13.6372L108.799 4.86954H106.416L98.0888 13.4859V4.86954H96.2129V23.0357Z" fill="white"/>
<path d="M124.586 23.0357V4.86954H122.723L112.659 19.8188V4.86954H110.783V23.0357H112.659L122.723 8.08647V23.0357H124.586Z" fill="white"/>
<path d="M134.702 3.25477C135.298 3.25477 135.843 3.10339 136.35 2.81323C137.351 2.23292 137.972 1.17323 137.972 0H136.426C136.426 0.933539 135.653 1.71569 134.702 1.71569C133.764 1.71569 132.978 0.933539 132.978 0H131.432C131.432 0.592924 131.584 1.13539 131.876 1.62739C132.459 2.63662 133.523 3.25477 134.702 3.25477ZM141.458 23.0357V4.86954H139.595L129.531 19.8188V4.86954H127.655V23.0357H129.531L139.595 8.08647V23.0357H141.458Z" fill="white"/>
<path d="M162.125 17.9012C162.125 15.6809 160.553 14.0914 158.943 13.7003C160.439 13.0569 161.554 11.5431 161.554 9.62554C161.554 6.24462 158.88 4.50369 155.356 4.50369C152.01 4.50369 149.285 6.00493 148.461 9.80216L150.413 10.1554C150.984 7.50616 152.707 6.26985 155.331 6.26985C157.676 6.26985 159.615 7.40523 159.615 9.5877C159.615 11.5305 158.272 12.8299 156.104 12.8299H152.935V14.6086H156.193C158.386 14.6086 160.16 15.7188 160.16 17.9517C160.16 20.4369 158.12 21.6354 155.521 21.6354C152.479 21.6354 150.907 20.4243 150.109 17.8634L148.195 18.1788C149.032 21.7237 151.731 23.4142 155.483 23.4142C159.235 23.4142 162.125 21.5597 162.125 17.9012Z" fill="white"/>
<path d="M166.123 23.0357V14.8357H176.212V23.0357H178.075V4.86954H176.212V13.0569H166.123V4.86954H164.26V23.0357H166.123Z" fill="white"/>
<path d="M188.547 4.86954H186.24L179.839 23.0357H181.803L183.35 18.6329H191.424L192.97 23.0357H194.947L188.547 4.86954ZM183.958 16.892L187.38 7.10247L190.815 16.892H183.958Z" fill="white"/>
<path d="M196.717 23.0357H198.592V13.9274L207.566 23.0357H210L200.798 13.6372L209.303 4.86954H206.92L198.592 13.4859V4.86954H196.717V23.0357Z" fill="white"/>
<g opacity="0.8">
<path d="M54.4113 31.6394C53.0213 31.6394 52.0867 32.2693 51.7732 33.4291L52.7551 33.6764C52.968 32.9346 53.5004 32.5872 54.3995 32.5872C55.4523 32.5872 55.9492 33.0759 55.9551 34.1886L54.1155 34.4123C52.5244 34.6124 51.5366 35.1776 51.5366 36.4846C51.5366 37.6326 52.3825 38.3508 53.7252 38.3508C54.7544 38.3508 55.5115 37.9446 55.9551 37.1734V38.1742H57.008V34.3298C57.008 32.5225 56.1562 31.6394 54.4113 31.6394ZM55.9551 35.0069V35.0245C55.9551 35.3071 55.9551 35.6898 55.8546 36.0077C55.6534 36.8731 54.9377 37.4442 53.944 37.4442C53.0449 37.4442 52.5777 37.0909 52.5777 36.4139C52.5777 35.7192 53.0686 35.366 54.2338 35.2188L55.9551 35.0069Z" fill="#60FFF5"/>
<path d="M59.5928 38.1742V35.4896H62.9525V38.1742H64.0054V31.816H62.9525V34.5006H59.5928V31.816H58.5399V38.1742H59.5928Z" fill="#60FFF5"/>
<path d="M68.3773 38.1742V32.8051H70.5717V31.816H65.13V32.8051H67.3244V38.1742H68.3773Z" fill="#60FFF5"/>
<path d="M75.8688 31.816L72.7398 36.5317V31.816H71.6869V38.1742H72.7398L75.8688 33.4585V38.1742H76.9217V31.816H75.8688Z" fill="#60FFF5"/>
<path d="M79.6252 38.1742V32.8051H82.695V38.1742H83.7479V31.816H78.5723V38.1742H79.6252Z" fill="#60FFF5"/>
<path d="M84.8144 38.2566C85.0214 38.3214 85.2166 38.3508 85.394 38.3508C86.4055 38.3508 86.9201 37.3264 86.9201 35.0716V32.8051H89.5818V38.1742H90.6347V31.816H85.9323V34.7773C85.9323 36.4257 85.7371 37.3912 85.0805 37.3912C84.9977 37.3912 84.909 37.3735 84.8144 37.3441V38.2566Z" fill="#60FFF5"/>
<path d="M94.811 31.6394C93.421 31.6394 92.4864 32.2693 92.173 33.4291L93.1548 33.6764C93.3678 32.9346 93.9001 32.5872 94.7992 32.5872C95.8521 32.5872 96.3489 33.0759 96.3548 34.1886L94.5153 34.4123C92.9242 34.6124 91.9364 35.1776 91.9364 36.4846C91.9364 37.6326 92.7822 38.3508 94.1249 38.3508C95.1541 38.3508 95.9112 37.9446 96.3548 37.1734V38.1742H97.4077V34.3298C97.4077 32.5225 96.5559 31.6394 94.811 31.6394ZM96.3548 35.0069V35.0245C96.3548 35.3071 96.3548 35.6898 96.2543 36.0077C96.0532 36.8731 95.3375 37.4442 94.3437 37.4442C93.4447 37.4442 92.9774 37.0909 92.9774 36.4139C92.9774 35.7192 93.4683 35.366 94.6336 35.2188L96.3548 35.0069Z" fill="#60FFF5"/>
<path d="M100.004 38.1742V32.8051H103.116V31.816H98.9456V38.1742H100.004Z" fill="#60FFF5"/>
<path d="M108.413 31.816L105.284 36.5317V31.816H104.231V38.1742H105.284L108.413 33.4585V38.1742H109.466V31.816H108.413Z" fill="#60FFF5"/>
<path d="M113.642 31.6394C112.252 31.6394 111.317 32.2693 111.004 33.4291L111.986 33.6764C112.199 32.9346 112.731 32.5872 113.63 32.5872C114.683 32.5872 115.18 33.0759 115.186 34.1886L113.346 34.4123C111.755 34.6124 110.767 35.1776 110.767 36.4846C110.767 37.6326 111.613 38.3508 112.956 38.3508C113.985 38.3508 114.742 37.9446 115.186 37.1734V38.1742H116.239V34.3298C116.239 32.5225 115.387 31.6394 113.642 31.6394ZM115.186 35.0069V35.0245C115.186 35.3071 115.186 35.6898 115.085 36.0077C114.884 36.8731 114.168 37.4442 113.175 37.4442C112.276 37.4442 111.808 37.0909 111.808 36.4139C111.808 35.7192 112.299 35.366 113.464 35.2188L115.186 35.0069Z" fill="#60FFF5"/>
<path d="M120.491 38.1742V32.8051H122.686V31.816H117.244V32.8051H119.439V38.1742H120.491Z" fill="#60FFF5"/>
<path d="M127.238 34.895V34.0296H123.689V34.895H127.238Z" fill="#60FFF5"/>
<path d="M131.336 38.3567C133.14 38.3685 134.352 37.1498 134.352 35.2836C134.352 33.4703 133.235 32.2517 131.608 32.2517C130.697 32.2517 129.964 32.5931 129.473 33.3585C129.579 32.128 129.822 31.5864 130.419 31.2332C131.306 30.7092 132.436 30.8858 134.051 30.5091L133.974 29.52C132.3 29.9086 130.945 29.7084 129.786 30.4561C128.958 30.9918 128.65 31.8926 128.497 33.1642C128.42 33.7882 128.408 34.4888 128.437 35.001C128.526 37.0968 129.526 38.3449 131.336 38.3567ZM131.371 37.3617C130.247 37.3617 129.561 36.567 129.561 35.3189C129.561 34.0414 130.23 33.2525 131.425 33.2525C132.578 33.2525 133.24 34.0531 133.24 35.3189C133.24 36.5611 132.56 37.3617 131.371 37.3617Z" fill="#60FFF5"/>
<path d="M140.978 38.3508C142.877 38.3508 144.06 36.985 144.06 34.9892C144.06 33.0229 142.894 31.6394 140.978 31.6394C139.268 31.6394 138.121 32.7639 137.926 34.4711H136.695V31.816H135.643V38.1742H136.695V35.5191H137.926C138.121 37.2028 139.239 38.3508 140.978 38.3508ZM140.978 37.3559C139.688 37.3559 139.02 36.4257 139.02 34.9892C139.02 33.5998 139.641 32.6343 140.978 32.6343C142.285 32.6343 142.942 33.5586 142.942 34.9892C142.942 36.3904 142.297 37.3559 140.978 37.3559Z" fill="#60FFF5"/>
<path d="M146.417 41V37.1792C146.825 37.9093 147.511 38.3508 148.552 38.3508C150.309 38.3508 151.457 36.985 151.457 34.9892C151.457 33.0229 150.321 31.6394 148.552 31.6394C147.517 31.6394 146.825 32.0751 146.417 32.811V31.816H145.364V41H146.417ZM148.375 37.3559C147.086 37.3559 146.417 36.4257 146.417 34.9892C146.417 33.5998 147.038 32.6343 148.375 32.6343C149.682 32.6343 150.339 33.5586 150.339 34.9892C150.339 36.3904 149.694 37.3559 148.375 37.3559Z" fill="#60FFF5"/>
<path d="M155.479 38.3508C157.378 38.3508 158.561 36.985 158.561 34.9892C158.561 33.0111 157.389 31.6394 155.479 31.6394C153.598 31.6394 152.403 32.9993 152.403 34.9892C152.403 36.9673 153.58 38.3508 155.479 38.3508ZM155.479 37.3559C154.207 37.3559 153.521 36.4433 153.521 34.9892C153.521 33.5527 154.178 32.6343 155.479 32.6343C156.768 32.6343 157.443 33.5292 157.443 34.9892C157.443 36.4257 156.768 37.3559 155.479 37.3559Z" fill="#60FFF5"/>
</g>
</svg>
