<svg width="60" height="60" viewBox="0 0 60 60" fill="none" xmlns="http://www.w3.org/2000/svg">
<path d="M30 0L30.6867 19.5225L33.9158 0.256654L32.0485 19.7018L37.7646 1.02223L33.3751 20.0572L41.4805 2.28361L34.644 20.5828L45 4.01924L35.8335 21.2696L48.2628 6.1994L36.9231 22.1057L51.2132 8.7868L37.8943 23.0769L53.8006 11.7372L38.7304 24.1665L55.9808 15L39.4172 25.356L57.7164 18.5195L39.9428 26.6249L58.9778 22.2354L40.2982 27.9515L59.7433 26.0842L40.4775 29.3133L60 30L40.4775 30.6867L59.7433 33.9158L40.2982 32.0485L58.9778 37.7646L39.9428 33.3751L57.7164 41.4805L39.4172 34.644L55.9808 45L38.7304 35.8335L53.8006 48.2628L37.8943 36.9231L51.2132 51.2132L36.9231 37.8943L48.2628 53.8006L35.8335 38.7304L45 55.9808L34.644 39.4172L41.4805 57.7164L33.3751 39.9428L37.7646 58.9778L32.0485 40.2982L33.9158 59.7433L30.6867 40.4775L30 60L29.3133 40.4775L26.0842 59.7433L27.9515 40.2982L22.2354 58.9778L26.6249 39.9428L18.5195 57.7164L25.356 39.4172L15 55.9808L24.1665 38.7304L11.7372 53.8006L23.0769 37.8943L8.7868 51.2132L22.1057 36.9231L6.1994 48.2628L21.2696 35.8335L4.01924 45L20.5828 34.644L2.28361 41.4805L20.0572 33.3751L1.02223 37.7646L19.7018 32.0485L0.256654 33.9158L19.5225 30.6867L0 30L19.5225 29.3133L0.256654 26.0842L19.7018 27.9515L1.02223 22.2354L20.0572 26.6249L2.28361 18.5195L20.5828 25.356L4.01924 15L21.2696 24.1665L6.1994 11.7372L22.1057 23.0769L8.7868 8.7868L23.0769 22.1057L11.7372 6.1994L24.1665 21.2696L15 4.01924L25.356 20.5828L18.5195 2.28361L26.6249 20.0572L22.2354 1.02223L27.9515 19.7018L26.0842 0.256654L29.3133 19.5225L30 0Z" fill="url(#paint0_radial_465_3199)"/>
<defs>
<radialGradient id="paint0_radial_465_3199" cx="0" cy="0" r="1" gradientUnits="userSpaceOnUse" gradientTransform="translate(30 28.875) rotate(81.3843) scale(37.5487)">
<stop stop-color="#FF187A"/>
<stop offset="1" stop-color="#FF187A" stop-opacity="0"/>
</radialGradient>
</defs>
</svg>
