<svg width="60" height="60" viewBox="0 0 60 60" fill="none" xmlns="http://www.w3.org/2000/svg">
<g clip-path="url(#clip0_465_3188)">
<path d="M30.0001 30C30.0001 21.7157 24.9633 15 18.7501 15C24.9633 15 30.0001 8.28427 30.0001 0C30.0001 8.28427 35.0369 15 41.2501 15C35.0369 15 30.0001 21.7157 30.0001 30Z" fill="url(#paint0_linear_465_3188)"/>
<path d="M30.0001 30C30.0001 38.2843 24.9633 45 18.7501 45C24.9633 45 30.0001 51.7157 30.0001 60C30.0001 51.7157 35.0369 45 41.2501 45C35.0369 45 30.0001 38.2843 30.0001 30Z" fill="url(#paint1_linear_465_3188)"/>
<path d="M30 30.0004C21.7157 30.0004 15 35.0372 15 41.2504C15 35.0372 8.28427 30.0004 0 30.0004C8.28427 30.0004 15 24.9636 15 18.7504C15 24.9636 21.7157 30.0004 30 30.0004Z" fill="url(#paint2_linear_465_3188)"/>
<path d="M30 30.0004C38.2843 30.0004 45 35.0372 45 41.2504C45 35.0372 51.7157 30.0004 60 30.0004C51.7157 30.0004 45 24.9636 45 18.7504C45 24.9636 38.2843 30.0004 30 30.0004Z" fill="url(#paint3_linear_465_3188)"/>
</g>
<defs>
<linearGradient id="paint0_linear_465_3188" x1="30.0001" y1="2.34364" x2="30.0001" y2="33.3983" gradientUnits="userSpaceOnUse">
<stop stop-color="#FF187A"/>
<stop offset="1" stop-color="white" stop-opacity="0.16"/>
</linearGradient>
<linearGradient id="paint1_linear_465_3188" x1="30.0001" y1="57.6564" x2="30.0001" y2="26.6017" gradientUnits="userSpaceOnUse">
<stop stop-color="#FF187A"/>
<stop offset="1" stop-color="white" stop-opacity="0.16"/>
</linearGradient>
<linearGradient id="paint2_linear_465_3188" x1="2.34364" y1="30.0003" x2="33.3983" y2="30.0003" gradientUnits="userSpaceOnUse">
<stop stop-color="#FF187A"/>
<stop offset="1" stop-color="white" stop-opacity="0.16"/>
</linearGradient>
<linearGradient id="paint3_linear_465_3188" x1="57.6564" y1="30.0003" x2="26.6017" y2="30.0003" gradientUnits="userSpaceOnUse">
<stop stop-color="#FF187A"/>
<stop offset="1" stop-color="white" stop-opacity="0.16"/>
</linearGradient>
<clipPath id="clip0_465_3188">
<rect width="60" height="60" fill="white"/>
</clipPath>
</defs>
</svg>
