<svg width="41" height="46" viewBox="0 0 41 46" fill="none" xmlns="http://www.w3.org/2000/svg">
<path fill-rule="evenodd" clip-rule="evenodd" d="M0 7.65887V17.641C0.0121567 22.3971 1.23518 27.0722 3.55438 31.2279C5.87357 35.3837 9.21296 38.8838 13.2594 41.4002L20.4998 46L27.7406 41.4002C31.787 38.8838 35.1264 35.3837 37.4456 31.2279C39.7648 27.0722 40.9878 22.3971 41 17.641V7.65887C37.4973 7.17889 34.0568 6.32292 30.7384 5.10584C27.1435 3.79459 23.7089 2.08175 20.5002 0C17.2915 2.08175 13.8565 3.79459 10.2616 5.10584C6.94322 6.32292 3.50273 7.17889 0 7.65887ZM26.8366 39.1022L20.5002 43.1277L20.5002 33.8676C23.7072 33.8676 26.4438 32.7434 28.7102 30.4951C30.9765 28.2467 32.1097 25.5317 32.1097 22.3501C32.1097 19.1684 30.9765 16.4534 28.7102 14.2051C26.4439 11.9567 23.7072 10.8326 20.5002 10.8325V2.8723C23.3082 4.69412 26.3139 6.19309 29.4599 7.34061C32.3639 8.40568 35.3747 9.15475 38.44 9.57479V18.3102C38.4294 22.4724 37.3591 26.5636 35.3295 30.2003C33.3 33.8371 30.3776 36.9001 26.8366 39.1022ZM20.5002 12.9536C23.1405 12.9537 25.3333 13.8546 27.1983 15.7049C29.0634 17.5552 29.9716 19.7306 29.9716 22.3501C29.9716 24.9696 29.0634 27.1449 27.1983 28.9952C25.3333 30.8455 23.1405 31.7465 20.5002 31.7465V28.49C20.5321 28.4904 20.5641 28.4906 20.5963 28.4906C21.7295 28.4906 22.7664 28.2254 23.7072 27.6952C24.6693 27.1437 25.4069 26.4119 25.9201 25.4998L23.7072 24.1954C23.4506 24.7681 23.0337 25.2135 22.4564 25.5317C21.8791 25.8498 21.2484 26.0089 20.5642 26.0089C20.5428 26.0089 20.5214 26.0088 20.5002 26.0085V18.6915C20.5214 18.6913 20.5428 18.6911 20.5642 18.6911C22.0822 18.6911 23.1192 19.285 23.6751 20.4728L25.888 19.2002C25.3749 18.2669 24.6479 17.5351 23.7072 17.0049C22.7664 16.4746 21.7295 16.2094 20.5963 16.2094C20.5641 16.2094 20.5321 16.2096 20.5002 16.2101V12.9536Z" fill="#6D56F2"/>
<path d="M13.8017 28.9952C15.6668 30.8455 17.8596 31.7465 20.5 31.7465V33.8676C17.2929 33.8676 14.5562 32.7434 12.2898 30.4951C10.0235 28.2467 8.89032 25.5317 8.89032 22.3501C8.89032 19.1684 10.0235 16.4534 12.2898 14.2051C14.5562 11.9567 17.2929 10.8325 20.5 10.8325V12.9536C17.8596 12.9536 15.6668 13.8546 13.8017 15.7049C11.9366 17.5552 11.0284 19.7306 11.0284 22.3501C11.0284 24.9696 11.9366 27.1449 13.8017 28.9952Z" fill="white"/>
<path d="M20.5055 28.4906C18.7523 28.4906 17.3571 27.8967 16.1384 26.7089C14.9197 25.4998 14.3104 24.0469 14.3104 22.35C14.3104 20.6531 14.9197 19.2108 16.1384 18.023C17.3571 16.8139 18.743 16.2094 20.4962 16.2094V18.6911C19.4058 18.6911 18.5865 19.0517 17.9023 19.7729C17.2395 20.494 16.9081 21.3531 16.9081 22.35C16.9081 23.3469 17.2395 24.206 17.9023 24.9271C18.5865 25.6483 19.4151 26.0089 20.5055 26.0089V28.4906Z" fill="white"/>
</svg>
