<svg width="314" height="57" viewBox="0 0 314 57" fill="none" xmlns="http://www.w3.org/2000/svg">
<path d="M74.8751 12.4001H72.1451L64.5701 34.0001H66.8951L68.7251 28.7651H78.2801L80.1101 34.0001H82.4501L74.8751 12.4001ZM69.4451 26.6951L73.4951 15.0551L77.5601 26.6951H69.4451Z" fill="white"/>
<path d="M92.1037 34.0001C96.4687 34.0001 99.6637 32.2751 99.6637 28.0601C99.6637 25.0001 97.5187 23.2151 95.5837 22.8401C97.3687 22.2401 98.9737 20.6801 98.9737 17.9501C98.9737 14.1401 96.0337 12.4001 91.8787 12.4001H84.5437V34.0001H92.1037ZM91.9087 14.5151C94.7587 14.5151 96.7087 15.5051 96.7087 18.0851C96.7087 20.6501 94.8937 21.8351 92.5237 21.8351H86.7487V14.5151H91.9087ZM86.7487 31.8851V23.9051H92.5687C95.1337 23.9051 97.3987 25.0451 97.3987 27.8651C97.3987 30.9701 95.1787 31.8851 92.1037 31.8851H86.7487Z" fill="white"/>
<path d="M109.128 34.0001V14.5151H115.728V12.4001H100.218V14.5151H106.923V34.0001H109.128Z" fill="white"/>
<path d="M127.569 34.4501C134.034 34.4501 137.529 29.8451 137.529 23.2001C137.529 16.5551 134.034 11.9501 127.569 11.9501C121.119 11.9501 117.624 16.5551 117.624 23.2001C117.624 29.8451 121.119 34.4501 127.569 34.4501ZM127.569 32.3351C122.499 32.3351 119.919 28.6001 119.964 23.2001C120.009 17.8001 122.499 14.0651 127.569 14.0651C132.639 14.0651 135.189 17.8001 135.189 23.2001C135.189 28.6001 132.639 32.3351 127.569 32.3351Z" fill="white"/>
<path d="M142.183 34.0001V25.7951H147.973C152.458 25.7951 155.098 23.2151 155.098 19.1051C155.098 14.9801 152.473 12.4001 147.973 12.4001H139.963V34.0001H142.183ZM142.183 14.5151H147.958C151.018 14.5151 152.833 16.2251 152.833 19.1051C152.833 21.9701 151.018 23.6951 147.958 23.6951H142.183V14.5151Z" fill="white"/>
<path d="M166.272 34.4501C171.282 34.4501 174.507 31.6751 175.692 27.3551L173.442 26.7701C172.527 30.1751 170.142 32.3351 166.272 32.3351C161.202 32.3351 158.652 28.6001 158.652 23.2001C158.652 17.8001 161.262 14.0651 166.272 14.0651C170.142 14.0651 172.527 16.2251 173.442 19.6301L175.692 19.0451C174.507 14.7251 171.282 11.9501 166.272 11.9501C159.822 11.9501 156.327 16.5551 156.327 23.2001C156.327 29.8451 159.822 34.4501 166.272 34.4501Z" fill="white"/>
<path d="M178.432 34.0001H180.652V23.1701L191.272 34.0001H194.152L183.262 22.8251L193.327 12.4001H190.507L180.652 22.6451V12.4001H178.432V34.0001Z" fill="white"/>
<path d="M212.01 34.0001V12.4001H209.805L197.895 30.1751V12.4001H195.675V34.0001H197.895L209.805 16.2251V34.0001H212.01Z" fill="white"/>
<path d="M223.982 10.4801C224.687 10.4801 225.332 10.3001 225.932 9.95511C227.117 9.26511 227.852 8.00511 227.852 6.61011H226.022C226.022 7.72011 225.107 8.65011 223.982 8.65011C222.872 8.65011 221.942 7.72011 221.942 6.61011H220.112C220.112 7.31511 220.292 7.96011 220.637 8.54511C221.327 9.74511 222.587 10.4801 223.982 10.4801ZM231.977 34.0001V12.4001H229.772L217.862 30.1751V12.4001H215.642V34.0001H217.862L229.772 16.2251V34.0001H231.977Z" fill="white"/>
<path d="M256.435 27.8951C256.435 25.2551 254.575 23.3651 252.67 22.9001C254.44 22.1351 255.76 20.3351 255.76 18.0551C255.76 14.0351 252.595 11.9651 248.425 11.9651C244.465 11.9651 241.24 13.7501 240.265 18.2651L242.575 18.6851C243.25 15.5351 245.29 14.0651 248.395 14.0651C251.17 14.0651 253.465 15.4151 253.465 18.0101C253.465 20.3201 251.875 21.8651 249.31 21.8651H245.56V23.9801H249.415C252.01 23.9801 254.11 25.3001 254.11 27.9551C254.11 30.9101 251.695 32.3351 248.62 32.3351C245.02 32.3351 243.16 30.8951 242.215 27.8501L239.95 28.2251C240.94 32.4401 244.135 34.4501 248.575 34.4501C253.015 34.4501 256.435 32.2451 256.435 27.8951Z" fill="white"/>
<path d="M261.166 34.0001V24.2501H273.106V34.0001H275.311V12.4001H273.106V22.1351H261.166V12.4001H258.961V34.0001H261.166Z" fill="white"/>
<path d="M287.703 12.4001H284.973L277.398 34.0001H279.723L281.553 28.7651H291.108L292.938 34.0001H295.278L287.703 12.4001ZM282.273 26.6951L286.323 15.0551L290.388 26.6951H282.273Z" fill="white"/>
<path d="M297.372 34.0001H299.592V23.1701L310.212 34.0001H313.092L302.202 22.8251L312.267 12.4001H309.447L299.592 22.6451V12.4001H297.372V34.0001Z" fill="white"/>
<g opacity="0.8">
<path d="M67.9621 44.2302C66.3171 44.2302 65.2111 44.9792 64.8401 46.3582L66.0021 46.6522C66.2541 45.7702 66.8841 45.3572 67.9481 45.3572C69.1941 45.3572 69.7821 45.9382 69.7891 47.2612L67.6121 47.5272C65.7291 47.7652 64.5601 48.4372 64.5601 49.9912C64.5601 51.3562 65.5611 52.2102 67.1501 52.2102C68.3681 52.2102 69.2641 51.7272 69.7891 50.8102V52.0002H71.0351V47.4292C71.0351 45.2802 70.0271 44.2302 67.9621 44.2302ZM69.7891 48.2342V48.2552C69.7891 48.5912 69.7891 49.0462 69.6701 49.4242C69.4321 50.4532 68.5851 51.1322 67.4091 51.1322C66.3451 51.1322 65.7921 50.7122 65.7921 49.9072C65.7921 49.0812 66.3731 48.6612 67.7521 48.4862L69.7891 48.2342Z" fill="#60FFF5"/>
<path d="M74.0941 52.0002V48.8082H78.0701V52.0002H79.3161V44.4402H78.0701V47.6322H74.0941V44.4402H72.8481V52.0002H74.0941Z" fill="#60FFF5"/>
<path d="M84.4899 52.0002V45.6162H87.0869V44.4402H80.6469V45.6162H83.2439V52.0002H84.4899Z" fill="#60FFF5"/>
<path d="M93.3557 44.4402L89.6527 50.0472V44.4402H88.4067V52.0002H89.6527L93.3557 46.3932V52.0002H94.6017V44.4402H93.3557Z" fill="#60FFF5"/>
<path d="M97.8011 52.0002V45.6162H101.434V52.0002H102.68V44.4402H96.5551V52.0002H97.8011Z" fill="#60FFF5"/>
<path d="M103.942 52.0982C104.187 52.1752 104.418 52.2102 104.628 52.2102C105.825 52.2102 106.434 50.9922 106.434 48.3112V45.6162H109.584V52.0002H110.83V44.4402H105.265V47.9612C105.265 49.9212 105.034 51.0692 104.257 51.0692C104.159 51.0692 104.054 51.0482 103.942 51.0132V52.0982Z" fill="#60FFF5"/>
<path d="M115.773 44.2302C114.128 44.2302 113.022 44.9792 112.651 46.3582L113.813 46.6522C114.065 45.7702 114.695 45.3572 115.759 45.3572C117.005 45.3572 117.593 45.9382 117.6 47.2612L115.423 47.5272C113.54 47.7652 112.371 48.4372 112.371 49.9912C112.371 51.3562 113.372 52.2102 114.961 52.2102C116.179 52.2102 117.075 51.7272 117.6 50.8102V52.0002H118.846V47.4292C118.846 45.2802 117.838 44.2302 115.773 44.2302ZM117.6 48.2342V48.2552C117.6 48.5912 117.6 49.0462 117.481 49.4242C117.243 50.4532 116.396 51.1322 115.22 51.1322C114.156 51.1322 113.603 50.7122 113.603 49.9072C113.603 49.0812 114.184 48.6612 115.563 48.4862L117.6 48.2342Z" fill="#60FFF5"/>
<path d="M121.919 52.0002V45.6162H125.601V44.4402H120.666V52.0002H121.919Z" fill="#60FFF5"/>
<path d="M131.869 44.4402L128.166 50.0472V44.4402H126.92V52.0002H128.166L131.869 46.3932V52.0002H133.115V44.4402H131.869Z" fill="#60FFF5"/>
<path d="M138.058 44.2302C136.413 44.2302 135.307 44.9792 134.936 46.3582L136.098 46.6522C136.35 45.7702 136.98 45.3572 138.044 45.3572C139.29 45.3572 139.878 45.9382 139.885 47.2612L137.708 47.5272C135.825 47.7652 134.656 48.4372 134.656 49.9912C134.656 51.3562 135.657 52.2102 137.246 52.2102C138.464 52.2102 139.36 51.7272 139.885 50.8102V52.0002H141.131V47.4292C141.131 45.2802 140.123 44.2302 138.058 44.2302ZM139.885 48.2342V48.2552C139.885 48.5912 139.885 49.0462 139.766 49.4242C139.528 50.4532 138.681 51.1322 137.505 51.1322C136.441 51.1322 135.888 50.7122 135.888 49.9072C135.888 49.0812 136.469 48.6612 137.848 48.4862L139.885 48.2342Z" fill="#60FFF5"/>
<path d="M146.164 52.0002V45.6162H148.761V44.4402H142.321V45.6162H144.918V52.0002H146.164Z" fill="#60FFF5"/>
<path d="M154.147 48.1012V47.0722H149.947V48.1012H154.147Z" fill="#60FFF5"/>
<path d="M158.997 52.2172C161.132 52.2312 162.567 50.7822 162.567 48.5632C162.567 46.4072 161.244 44.9582 159.319 44.9582C158.241 44.9582 157.373 45.3642 156.792 46.2742C156.918 44.8112 157.205 44.1672 157.912 43.7472C158.962 43.1242 160.299 43.3342 162.21 42.8862L162.119 41.7102C160.138 42.1722 158.535 41.9342 157.163 42.8232C156.183 43.4602 155.819 44.5312 155.637 46.0432C155.546 46.7852 155.532 47.6182 155.567 48.2272C155.672 50.7192 156.855 52.2032 158.997 52.2172ZM159.039 51.0342C157.709 51.0342 156.897 50.0892 156.897 48.6052C156.897 47.0862 157.688 46.1482 159.102 46.1482C160.467 46.1482 161.251 47.1002 161.251 48.6052C161.251 50.0822 160.446 51.0342 159.039 51.0342Z" fill="#60FFF5"/>
<path d="M170.408 52.2102C172.655 52.2102 174.055 50.5862 174.055 48.2132C174.055 45.8752 172.676 44.2302 170.408 44.2302C168.385 44.2302 167.027 45.5672 166.796 47.5972H165.34V44.4402H164.094V52.0002H165.34V48.8432H166.796C167.027 50.8452 168.35 52.2102 170.408 52.2102ZM170.408 51.0272C168.882 51.0272 168.091 49.9212 168.091 48.2132C168.091 46.5612 168.826 45.4132 170.408 45.4132C171.955 45.4132 172.732 46.5122 172.732 48.2132C172.732 49.8792 171.969 51.0272 170.408 51.0272Z" fill="#60FFF5"/>
<path d="M176.845 55.3602V50.8172C177.328 51.6852 178.14 52.2102 179.372 52.2102C181.451 52.2102 182.809 50.5862 182.809 48.2132C182.809 45.8752 181.465 44.2302 179.372 44.2302C178.147 44.2302 177.328 44.7482 176.845 45.6232V44.4402H175.599V55.3602H176.845ZM179.162 51.0272C177.636 51.0272 176.845 49.9212 176.845 48.2132C176.845 46.5612 177.58 45.4132 179.162 45.4132C180.709 45.4132 181.486 46.5122 181.486 48.2132C181.486 49.8792 180.723 51.0272 179.162 51.0272Z" fill="#60FFF5"/>
<path d="M187.569 52.2102C189.816 52.2102 191.216 50.5862 191.216 48.2132C191.216 45.8612 189.83 44.2302 187.569 44.2302C185.343 44.2302 183.929 45.8472 183.929 48.2132C183.929 50.5652 185.322 52.2102 187.569 52.2102ZM187.569 51.0272C186.064 51.0272 185.252 49.9422 185.252 48.2132C185.252 46.5052 186.029 45.4132 187.569 45.4132C189.095 45.4132 189.893 46.4772 189.893 48.2132C189.893 49.9212 189.095 51.0272 187.569 51.0272Z" fill="#60FFF5"/>
</g>
<path fill-rule="evenodd" clip-rule="evenodd" d="M0 9.32384V21.4759C0.0145288 27.266 1.47619 32.9575 4.24791 38.0166C7.01964 43.0758 11.0106 47.3368 15.8466 50.4002L24.4998 56L33.1534 50.4002C37.9894 47.3368 41.9804 43.0758 44.7521 38.0166C47.5238 32.9575 48.9855 27.266 49 21.4759V9.32384C44.8138 8.73952 40.702 7.69747 36.7361 6.21581C32.4397 4.61951 28.335 2.5343 24.5002 0C20.6654 2.5343 16.5603 4.61951 12.2639 6.21581C8.29799 7.69747 4.18618 8.73952 0 9.32384ZM32.073 47.6026L24.5002 52.5032L24.5002 41.2301C28.333 41.2301 31.6036 39.8615 34.3121 37.1244C37.0207 34.3873 38.375 31.0821 38.375 27.2088C38.375 23.3355 37.0207 20.0303 34.3121 17.2931C31.6036 14.556 28.333 13.1875 24.5002 13.1874V3.49671C27.8561 5.71458 31.4483 7.53942 35.2082 8.93639C38.6788 10.233 42.2771 11.1449 45.9405 11.6563V22.2907C45.9278 27.3577 44.6486 32.3383 42.2231 36.7656C39.7975 41.1929 36.305 44.9218 32.073 47.6026ZM24.5002 15.7696C27.6557 15.7697 30.2763 16.8665 32.5053 19.119C34.7343 21.3716 35.8197 24.0198 35.8197 27.2088C35.8197 30.3977 34.7343 33.046 32.5053 35.2985C30.2763 37.551 27.6557 38.6479 24.5002 38.6479V34.6835C24.5384 34.6839 24.5767 34.6842 24.6151 34.6842C25.9693 34.6842 27.2086 34.3614 28.3329 33.7159C29.4828 33.0445 30.3644 32.1536 30.9776 31.0433L28.3329 29.4552C28.0263 30.1524 27.528 30.6947 26.8381 31.082C26.1482 31.4693 25.3944 31.663 24.5767 31.663C24.5511 31.663 24.5256 31.6628 24.5002 31.6625V22.7549C24.5256 22.7546 24.5511 22.7544 24.5767 22.7544C26.391 22.7544 27.6303 23.4774 28.2946 24.9235L30.9393 23.3741C30.326 22.238 29.4573 21.3471 28.3329 20.7016C27.2086 20.056 25.9693 19.7332 24.6151 19.7332C24.5767 19.7332 24.5384 19.7335 24.5002 19.734V15.7696Z" fill="#6D56F2"/>
<path d="M16.4947 35.2986C18.7237 37.5512 21.3443 38.648 24.5 38.648V41.2302C20.6671 41.2302 17.3964 39.8616 14.6878 37.1245C11.9793 34.3874 10.625 31.0822 10.625 27.2089C10.625 23.3356 11.9793 20.0303 14.6878 17.2932C17.3964 14.5561 20.6671 13.1875 24.5 13.1875V15.7697C21.3443 15.7697 18.7237 16.8666 16.4947 19.1191C14.2657 21.3716 13.1802 24.0199 13.1802 27.2089C13.1802 30.3978 14.2657 33.0461 16.4947 35.2986Z" fill="white"/>
<path d="M24.5065 34.6843C22.4112 34.6843 20.7439 33.9612 19.2874 32.5152C17.8309 31.0434 17.1026 29.2745 17.1026 27.2088C17.1026 25.143 17.8309 23.3871 19.2874 21.9411C20.7439 20.4692 22.4002 19.7333 24.4955 19.7333V22.7545C23.1923 22.7545 22.2131 23.1935 21.3955 24.0714C20.6033 24.9494 20.2073 25.9952 20.2073 27.2088C20.2073 28.4224 20.6033 29.4682 21.3955 30.3462C22.2131 31.2241 23.2033 31.6631 24.5065 31.6631V34.6843Z" fill="white"/>
</svg>
